<svg id="visual" viewBox="0 0 900 600" width="900" height="600" xmlns="http://www.w3.org/2000/svg" xmlns:xlink="http://www.w3.org/1999/xlink" version="1.1"><rect x="0" y="0" width="900" height="600" fill="#c4c1c1"></rect><path d="M0 303L18.8 314.3C37.7 325.7 75.3 348.3 112.8 347.2C150.3 346 187.7 321 225.2 304.3C262.7 287.7 300.3 279.3 337.8 287.5C375.3 295.7 412.7 320.3 450.2 334.7C487.7 349 525.3 353 562.8 337.2C600.3 321.3 637.7 285.7 675.2 290.7C712.7 295.7 750.3 341.3 787.8 339C825.3 336.7 862.7 286.3 881.3 261.2L900 236L900 601L881.3 601C862.7 601 825.3 601 787.8 601C750.3 601 712.7 601 675.2 601C637.7 601 600.3 601 562.8 601C525.3 601 487.7 601 450.2 601C412.7 601 375.3 601 337.8 601C300.3 601 262.7 601 225.2 601C187.7 601 150.3 601 112.8 601C75.3 601 37.7 601 18.8 601L0 601Z" fill="#777777"></path><path d="M0 386L18.8 394.3C37.7 402.7 75.3 419.3 112.8 425.7C150.3 432 187.7 428 225.2 431.7C262.7 435.3 300.3 446.7 337.8 442.7C375.3 438.7 412.7 419.3 450.2 413.7C487.7 408 525.3 416 562.8 401C600.3 386 637.7 348 675.2 349C712.7 350 750.3 390 787.8 417C825.3 444 862.7 458 881.3 465L900 472L900 601L881.3 601C862.7 601 825.3 601 787.8 601C750.3 601 712.7 601 675.2 601C637.7 601 600.3 601 562.8 601C525.3 601 487.7 601 450.2 601C412.7 601 375.3 601 337.8 601C300.3 601 262.7 601 225.2 601C187.7 601 150.3 601 112.8 601C75.3 601 37.7 601 18.8 601L0 601Z" fill="#666666"></path><path d="M0 491L18.8 488.5C37.7 486 75.3 481 112.8 469C150.3 457 187.7 438 225.2 432.5C262.7 427 300.3 435 337.8 452.7C375.3 470.3 412.7 497.7 450.2 496C487.7 494.3 525.3 463.7 562.8 451.8C600.3 440 637.7 447 675.2 460.2C712.7 473.3 750.3 492.7 787.8 500.5C825.3 508.3 862.7 504.7 881.3 502.8L900 501L900 601L881.3 601C862.7 601 825.3 601 787.8 601C750.3 601 712.7 601 675.2 601C637.7 601 600.3 601 562.8 601C525.3 601 487.7 601 450.2 601C412.7 601 375.3 601 337.8 601C300.3 601 262.7 601 225.2 601C187.7 601 150.3 601 112.8 601C75.3 601 37.7 601 18.8 601L0 601Z" fill="#555555"></path></svg>